<mxfile host="Electron" agent="Mozilla/5.0 (Windows NT 10.0; Win64; x64) AppleWebKit/537.36 (KHTML, like Gecko) draw.io/24.7.8 Chrome/128.0.6613.36 Electron/32.0.1 Safari/537.36" version="24.7.8">
  <diagram id="C5RBs43oDa-KdzZeNtuy" name="Page-1">
    <mxGraphModel dx="2062" dy="844" grid="1" gridSize="10" guides="1" tooltips="1" connect="1" arrows="1" fold="1" page="1" pageScale="1" pageWidth="827" pageHeight="1169" math="0" shadow="0">
      <root>
        <mxCell id="WIyWlLk6GJQsqaUBKTNV-0" />
        <mxCell id="WIyWlLk6GJQsqaUBKTNV-1" parent="WIyWlLk6GJQsqaUBKTNV-0" />
        <mxCell id="uIKVfRV7Bo58f426nTOa-4" style="edgeStyle=orthogonalEdgeStyle;rounded=0;orthogonalLoop=1;jettySize=auto;html=1;" edge="1" parent="WIyWlLk6GJQsqaUBKTNV-1" source="uIKVfRV7Bo58f426nTOa-2" target="uIKVfRV7Bo58f426nTOa-3">
          <mxGeometry relative="1" as="geometry" />
        </mxCell>
        <mxCell id="uIKVfRV7Bo58f426nTOa-2" value="서비스 시작" style="rounded=1;whiteSpace=wrap;html=1;" vertex="1" parent="WIyWlLk6GJQsqaUBKTNV-1">
          <mxGeometry x="294" y="70" width="120" height="60" as="geometry" />
        </mxCell>
        <mxCell id="uIKVfRV7Bo58f426nTOa-8" value="" style="edgeStyle=orthogonalEdgeStyle;rounded=0;orthogonalLoop=1;jettySize=auto;html=1;" edge="1" parent="WIyWlLk6GJQsqaUBKTNV-1" source="uIKVfRV7Bo58f426nTOa-3" target="uIKVfRV7Bo58f426nTOa-7">
          <mxGeometry relative="1" as="geometry" />
        </mxCell>
        <mxCell id="uIKVfRV7Bo58f426nTOa-18" value="" style="edgeStyle=orthogonalEdgeStyle;rounded=0;orthogonalLoop=1;jettySize=auto;html=1;" edge="1" parent="WIyWlLk6GJQsqaUBKTNV-1" source="uIKVfRV7Bo58f426nTOa-3" target="uIKVfRV7Bo58f426nTOa-17">
          <mxGeometry relative="1" as="geometry" />
        </mxCell>
        <mxCell id="uIKVfRV7Bo58f426nTOa-3" value="로그인 화면" style="rounded=0;whiteSpace=wrap;html=1;fillColor=#dae8fc;strokeColor=#6c8ebf;" vertex="1" parent="WIyWlLk6GJQsqaUBKTNV-1">
          <mxGeometry x="294" y="160" width="120" height="60" as="geometry" />
        </mxCell>
        <mxCell id="uIKVfRV7Bo58f426nTOa-10" value="" style="edgeStyle=orthogonalEdgeStyle;rounded=0;orthogonalLoop=1;jettySize=auto;html=1;" edge="1" parent="WIyWlLk6GJQsqaUBKTNV-1" source="uIKVfRV7Bo58f426nTOa-7" target="uIKVfRV7Bo58f426nTOa-9">
          <mxGeometry relative="1" as="geometry" />
        </mxCell>
        <mxCell id="uIKVfRV7Bo58f426nTOa-14" style="edgeStyle=orthogonalEdgeStyle;rounded=0;orthogonalLoop=1;jettySize=auto;html=1;entryX=1;entryY=0.5;entryDx=0;entryDy=0;" edge="1" parent="WIyWlLk6GJQsqaUBKTNV-1" source="uIKVfRV7Bo58f426nTOa-7" target="uIKVfRV7Bo58f426nTOa-3">
          <mxGeometry relative="1" as="geometry">
            <Array as="points">
              <mxPoint x="434" y="290" />
              <mxPoint x="434" y="190" />
            </Array>
          </mxGeometry>
        </mxCell>
        <mxCell id="uIKVfRV7Bo58f426nTOa-7" value="로그인 시도" style="rhombus;whiteSpace=wrap;html=1;rounded=0;fillColor=#dae8fc;strokeColor=#6c8ebf;" vertex="1" parent="WIyWlLk6GJQsqaUBKTNV-1">
          <mxGeometry x="286" y="250" width="136" height="80" as="geometry" />
        </mxCell>
        <mxCell id="uIKVfRV7Bo58f426nTOa-29" style="edgeStyle=orthogonalEdgeStyle;rounded=0;orthogonalLoop=1;jettySize=auto;html=1;" edge="1" parent="WIyWlLk6GJQsqaUBKTNV-1" source="uIKVfRV7Bo58f426nTOa-9" target="uIKVfRV7Bo58f426nTOa-26">
          <mxGeometry relative="1" as="geometry" />
        </mxCell>
        <mxCell id="uIKVfRV7Bo58f426nTOa-46" style="edgeStyle=orthogonalEdgeStyle;rounded=0;orthogonalLoop=1;jettySize=auto;html=1;" edge="1" parent="WIyWlLk6GJQsqaUBKTNV-1" source="uIKVfRV7Bo58f426nTOa-9" target="uIKVfRV7Bo58f426nTOa-27">
          <mxGeometry relative="1" as="geometry" />
        </mxCell>
        <mxCell id="uIKVfRV7Bo58f426nTOa-52" style="edgeStyle=orthogonalEdgeStyle;rounded=0;orthogonalLoop=1;jettySize=auto;html=1;entryX=0.5;entryY=0;entryDx=0;entryDy=0;" edge="1" parent="WIyWlLk6GJQsqaUBKTNV-1" source="uIKVfRV7Bo58f426nTOa-9" target="uIKVfRV7Bo58f426nTOa-51">
          <mxGeometry relative="1" as="geometry" />
        </mxCell>
        <mxCell id="uIKVfRV7Bo58f426nTOa-53" style="edgeStyle=orthogonalEdgeStyle;rounded=0;orthogonalLoop=1;jettySize=auto;html=1;entryX=0.5;entryY=0;entryDx=0;entryDy=0;" edge="1" parent="WIyWlLk6GJQsqaUBKTNV-1" source="uIKVfRV7Bo58f426nTOa-9" target="uIKVfRV7Bo58f426nTOa-50">
          <mxGeometry relative="1" as="geometry" />
        </mxCell>
        <mxCell id="uIKVfRV7Bo58f426nTOa-70" style="edgeStyle=orthogonalEdgeStyle;rounded=0;orthogonalLoop=1;jettySize=auto;html=1;entryX=0;entryY=0.5;entryDx=0;entryDy=0;" edge="1" parent="WIyWlLk6GJQsqaUBKTNV-1" source="uIKVfRV7Bo58f426nTOa-9" target="uIKVfRV7Bo58f426nTOa-69">
          <mxGeometry relative="1" as="geometry" />
        </mxCell>
        <mxCell id="uIKVfRV7Bo58f426nTOa-9" value="메인 화면" style="whiteSpace=wrap;html=1;rounded=0;fillColor=#b0e3e6;strokeColor=#0e8088;" vertex="1" parent="WIyWlLk6GJQsqaUBKTNV-1">
          <mxGeometry x="294" y="360" width="120" height="60" as="geometry" />
        </mxCell>
        <mxCell id="uIKVfRV7Bo58f426nTOa-12" value="성공" style="text;html=1;align=center;verticalAlign=middle;whiteSpace=wrap;rounded=0;" vertex="1" parent="WIyWlLk6GJQsqaUBKTNV-1">
          <mxGeometry x="347" y="326" width="76" height="30" as="geometry" />
        </mxCell>
        <mxCell id="uIKVfRV7Bo58f426nTOa-15" value="실패" style="text;html=1;align=center;verticalAlign=middle;whiteSpace=wrap;rounded=0;" vertex="1" parent="WIyWlLk6GJQsqaUBKTNV-1">
          <mxGeometry x="377" y="226" width="76" height="30" as="geometry" />
        </mxCell>
        <mxCell id="uIKVfRV7Bo58f426nTOa-22" style="edgeStyle=orthogonalEdgeStyle;rounded=0;orthogonalLoop=1;jettySize=auto;html=1;" edge="1" parent="WIyWlLk6GJQsqaUBKTNV-1" source="uIKVfRV7Bo58f426nTOa-17" target="uIKVfRV7Bo58f426nTOa-20">
          <mxGeometry relative="1" as="geometry" />
        </mxCell>
        <mxCell id="uIKVfRV7Bo58f426nTOa-17" value="회원가입 화면" style="rounded=0;whiteSpace=wrap;html=1;fillColor=#dae8fc;strokeColor=#6c8ebf;" vertex="1" parent="WIyWlLk6GJQsqaUBKTNV-1">
          <mxGeometry x="140" y="160" width="120" height="60" as="geometry" />
        </mxCell>
        <mxCell id="uIKVfRV7Bo58f426nTOa-21" style="edgeStyle=orthogonalEdgeStyle;rounded=0;orthogonalLoop=1;jettySize=auto;html=1;entryX=0.5;entryY=0;entryDx=0;entryDy=0;" edge="1" parent="WIyWlLk6GJQsqaUBKTNV-1" source="uIKVfRV7Bo58f426nTOa-20" target="uIKVfRV7Bo58f426nTOa-3">
          <mxGeometry relative="1" as="geometry">
            <Array as="points">
              <mxPoint x="50" y="140" />
              <mxPoint x="354" y="140" />
            </Array>
          </mxGeometry>
        </mxCell>
        <mxCell id="uIKVfRV7Bo58f426nTOa-23" style="edgeStyle=orthogonalEdgeStyle;rounded=0;orthogonalLoop=1;jettySize=auto;html=1;entryX=0.5;entryY=1;entryDx=0;entryDy=0;" edge="1" parent="WIyWlLk6GJQsqaUBKTNV-1" source="uIKVfRV7Bo58f426nTOa-20" target="uIKVfRV7Bo58f426nTOa-17">
          <mxGeometry relative="1" as="geometry">
            <Array as="points">
              <mxPoint x="50" y="249" />
              <mxPoint x="200" y="249" />
            </Array>
          </mxGeometry>
        </mxCell>
        <mxCell id="uIKVfRV7Bo58f426nTOa-20" value="회원가입 시도" style="rhombus;whiteSpace=wrap;html=1;rounded=0;fillColor=#dae8fc;strokeColor=#6c8ebf;" vertex="1" parent="WIyWlLk6GJQsqaUBKTNV-1">
          <mxGeometry x="-20" y="149" width="136" height="80" as="geometry" />
        </mxCell>
        <mxCell id="uIKVfRV7Bo58f426nTOa-24" value="성공" style="text;html=1;align=center;verticalAlign=middle;whiteSpace=wrap;rounded=0;" vertex="1" parent="WIyWlLk6GJQsqaUBKTNV-1">
          <mxGeometry x="160" y="112" width="78" height="30" as="geometry" />
        </mxCell>
        <mxCell id="uIKVfRV7Bo58f426nTOa-25" value="실패" style="text;html=1;align=center;verticalAlign=middle;whiteSpace=wrap;rounded=0;" vertex="1" parent="WIyWlLk6GJQsqaUBKTNV-1">
          <mxGeometry x="84" y="250" width="86" height="30" as="geometry" />
        </mxCell>
        <mxCell id="uIKVfRV7Bo58f426nTOa-33" style="edgeStyle=orthogonalEdgeStyle;rounded=0;orthogonalLoop=1;jettySize=auto;html=1;entryX=0.5;entryY=1;entryDx=0;entryDy=0;" edge="1" parent="WIyWlLk6GJQsqaUBKTNV-1" source="uIKVfRV7Bo58f426nTOa-26" target="uIKVfRV7Bo58f426nTOa-32">
          <mxGeometry relative="1" as="geometry" />
        </mxCell>
        <mxCell id="uIKVfRV7Bo58f426nTOa-37" style="edgeStyle=orthogonalEdgeStyle;rounded=0;orthogonalLoop=1;jettySize=auto;html=1;entryX=0;entryY=0.5;entryDx=0;entryDy=0;" edge="1" parent="WIyWlLk6GJQsqaUBKTNV-1" source="uIKVfRV7Bo58f426nTOa-26" target="uIKVfRV7Bo58f426nTOa-36">
          <mxGeometry relative="1" as="geometry" />
        </mxCell>
        <mxCell id="uIKVfRV7Bo58f426nTOa-26" value="팀 페이지" style="rounded=0;whiteSpace=wrap;html=1;fillColor=#d5e8d4;strokeColor=#82b366;" vertex="1" parent="WIyWlLk6GJQsqaUBKTNV-1">
          <mxGeometry x="460" y="360" width="120" height="60" as="geometry" />
        </mxCell>
        <mxCell id="uIKVfRV7Bo58f426nTOa-48" style="edgeStyle=orthogonalEdgeStyle;rounded=0;orthogonalLoop=1;jettySize=auto;html=1;entryX=0.5;entryY=1;entryDx=0;entryDy=0;" edge="1" parent="WIyWlLk6GJQsqaUBKTNV-1" source="uIKVfRV7Bo58f426nTOa-27" target="uIKVfRV7Bo58f426nTOa-47">
          <mxGeometry relative="1" as="geometry" />
        </mxCell>
        <mxCell id="uIKVfRV7Bo58f426nTOa-49" style="edgeStyle=orthogonalEdgeStyle;rounded=0;orthogonalLoop=1;jettySize=auto;html=1;" edge="1" parent="WIyWlLk6GJQsqaUBKTNV-1" source="uIKVfRV7Bo58f426nTOa-27" target="uIKVfRV7Bo58f426nTOa-28">
          <mxGeometry relative="1" as="geometry" />
        </mxCell>
        <mxCell id="uIKVfRV7Bo58f426nTOa-27" value="자유 게시판" style="rounded=0;whiteSpace=wrap;html=1;fillColor=#ffe6cc;strokeColor=#d79b00;" vertex="1" parent="WIyWlLk6GJQsqaUBKTNV-1">
          <mxGeometry x="139" y="360" width="120" height="60" as="geometry" />
        </mxCell>
        <mxCell id="uIKVfRV7Bo58f426nTOa-28" value="글 쓰기" style="rounded=0;whiteSpace=wrap;html=1;fillColor=#ffe6cc;strokeColor=#d79b00;" vertex="1" parent="WIyWlLk6GJQsqaUBKTNV-1">
          <mxGeometry x="-12" y="360" width="120" height="60" as="geometry" />
        </mxCell>
        <mxCell id="uIKVfRV7Bo58f426nTOa-42" style="edgeStyle=orthogonalEdgeStyle;rounded=0;orthogonalLoop=1;jettySize=auto;html=1;" edge="1" parent="WIyWlLk6GJQsqaUBKTNV-1" source="uIKVfRV7Bo58f426nTOa-32" target="uIKVfRV7Bo58f426nTOa-34">
          <mxGeometry relative="1" as="geometry" />
        </mxCell>
        <mxCell id="uIKVfRV7Bo58f426nTOa-32" value="팀 생성 페이지" style="rounded=0;whiteSpace=wrap;html=1;fillColor=#d5e8d4;strokeColor=#82b366;" vertex="1" parent="WIyWlLk6GJQsqaUBKTNV-1">
          <mxGeometry x="460" y="260" width="120" height="60" as="geometry" />
        </mxCell>
        <mxCell id="uIKVfRV7Bo58f426nTOa-41" style="edgeStyle=orthogonalEdgeStyle;rounded=0;orthogonalLoop=1;jettySize=auto;html=1;" edge="1" parent="WIyWlLk6GJQsqaUBKTNV-1" source="uIKVfRV7Bo58f426nTOa-34" target="uIKVfRV7Bo58f426nTOa-40">
          <mxGeometry relative="1" as="geometry" />
        </mxCell>
        <mxCell id="uIKVfRV7Bo58f426nTOa-45" style="edgeStyle=orthogonalEdgeStyle;rounded=0;orthogonalLoop=1;jettySize=auto;html=1;entryX=0.5;entryY=1;entryDx=0;entryDy=0;" edge="1" parent="WIyWlLk6GJQsqaUBKTNV-1" source="uIKVfRV7Bo58f426nTOa-34" target="uIKVfRV7Bo58f426nTOa-44">
          <mxGeometry relative="1" as="geometry">
            <Array as="points">
              <mxPoint x="670" y="240" />
              <mxPoint x="520" y="240" />
            </Array>
          </mxGeometry>
        </mxCell>
        <mxCell id="uIKVfRV7Bo58f426nTOa-34" value="소속 팀이 없다면" style="rhombus;whiteSpace=wrap;html=1;rounded=0;fillColor=#d5e8d4;strokeColor=#82b366;" vertex="1" parent="WIyWlLk6GJQsqaUBKTNV-1">
          <mxGeometry x="602" y="250" width="136" height="80" as="geometry" />
        </mxCell>
        <mxCell id="uIKVfRV7Bo58f426nTOa-39" style="edgeStyle=orthogonalEdgeStyle;rounded=0;orthogonalLoop=1;jettySize=auto;html=1;entryX=0.5;entryY=1;entryDx=0;entryDy=0;" edge="1" parent="WIyWlLk6GJQsqaUBKTNV-1" source="uIKVfRV7Bo58f426nTOa-36" target="uIKVfRV7Bo58f426nTOa-34">
          <mxGeometry relative="1" as="geometry" />
        </mxCell>
        <mxCell id="uIKVfRV7Bo58f426nTOa-36" value="팀 상세 보기" style="rounded=0;whiteSpace=wrap;html=1;fillColor=#d5e8d4;strokeColor=#82b366;" vertex="1" parent="WIyWlLk6GJQsqaUBKTNV-1">
          <mxGeometry x="610" y="360" width="120" height="60" as="geometry" />
        </mxCell>
        <mxCell id="uIKVfRV7Bo58f426nTOa-40" value="팀 가입 신청" style="rounded=0;whiteSpace=wrap;html=1;fillColor=#d5e8d4;strokeColor=#82b366;" vertex="1" parent="WIyWlLk6GJQsqaUBKTNV-1">
          <mxGeometry x="610" y="149" width="120" height="60" as="geometry" />
        </mxCell>
        <mxCell id="uIKVfRV7Bo58f426nTOa-44" value="팀 생성" style="rounded=0;whiteSpace=wrap;html=1;fillColor=#d5e8d4;strokeColor=#82b366;" vertex="1" parent="WIyWlLk6GJQsqaUBKTNV-1">
          <mxGeometry x="460" y="149" width="120" height="60" as="geometry" />
        </mxCell>
        <mxCell id="uIKVfRV7Bo58f426nTOa-47" value="게시물 열람" style="rounded=0;whiteSpace=wrap;html=1;fillColor=#ffe6cc;strokeColor=#d79b00;" vertex="1" parent="WIyWlLk6GJQsqaUBKTNV-1">
          <mxGeometry x="139" y="280" width="120" height="60" as="geometry" />
        </mxCell>
        <mxCell id="uIKVfRV7Bo58f426nTOa-55" style="edgeStyle=orthogonalEdgeStyle;rounded=0;orthogonalLoop=1;jettySize=auto;html=1;" edge="1" parent="WIyWlLk6GJQsqaUBKTNV-1" source="uIKVfRV7Bo58f426nTOa-50" target="uIKVfRV7Bo58f426nTOa-54">
          <mxGeometry relative="1" as="geometry" />
        </mxCell>
        <mxCell id="uIKVfRV7Bo58f426nTOa-59" style="edgeStyle=orthogonalEdgeStyle;rounded=0;orthogonalLoop=1;jettySize=auto;html=1;entryX=0;entryY=0.5;entryDx=0;entryDy=0;" edge="1" parent="WIyWlLk6GJQsqaUBKTNV-1" source="uIKVfRV7Bo58f426nTOa-50" target="uIKVfRV7Bo58f426nTOa-56">
          <mxGeometry relative="1" as="geometry">
            <Array as="points">
              <mxPoint x="440" y="570" />
            </Array>
          </mxGeometry>
        </mxCell>
        <mxCell id="uIKVfRV7Bo58f426nTOa-50" value="용병 게시판" style="rounded=0;whiteSpace=wrap;html=1;fillColor=#f8cecc;strokeColor=#b85450;" vertex="1" parent="WIyWlLk6GJQsqaUBKTNV-1">
          <mxGeometry x="380" y="460" width="120" height="60" as="geometry" />
        </mxCell>
        <mxCell id="uIKVfRV7Bo58f426nTOa-63" style="edgeStyle=orthogonalEdgeStyle;rounded=0;orthogonalLoop=1;jettySize=auto;html=1;exitX=0.5;exitY=1;exitDx=0;exitDy=0;entryX=0.5;entryY=0;entryDx=0;entryDy=0;" edge="1" parent="WIyWlLk6GJQsqaUBKTNV-1" source="uIKVfRV7Bo58f426nTOa-51" target="uIKVfRV7Bo58f426nTOa-62">
          <mxGeometry relative="1" as="geometry" />
        </mxCell>
        <mxCell id="uIKVfRV7Bo58f426nTOa-65" style="edgeStyle=orthogonalEdgeStyle;rounded=0;orthogonalLoop=1;jettySize=auto;html=1;entryX=1;entryY=0.5;entryDx=0;entryDy=0;" edge="1" parent="WIyWlLk6GJQsqaUBKTNV-1" source="uIKVfRV7Bo58f426nTOa-51" target="uIKVfRV7Bo58f426nTOa-60">
          <mxGeometry relative="1" as="geometry" />
        </mxCell>
        <mxCell id="uIKVfRV7Bo58f426nTOa-51" value="매치 게시판" style="rounded=0;whiteSpace=wrap;html=1;fillColor=#fff2cc;strokeColor=#d6b656;" vertex="1" parent="WIyWlLk6GJQsqaUBKTNV-1">
          <mxGeometry x="210" y="460" width="120" height="60" as="geometry" />
        </mxCell>
        <mxCell id="uIKVfRV7Bo58f426nTOa-54" value="게시물 열람" style="rounded=0;whiteSpace=wrap;html=1;fillColor=#f8cecc;strokeColor=#b85450;" vertex="1" parent="WIyWlLk6GJQsqaUBKTNV-1">
          <mxGeometry x="530" y="460" width="120" height="60" as="geometry" />
        </mxCell>
        <mxCell id="uIKVfRV7Bo58f426nTOa-56" value="용병 구인 글 쓰기" style="rounded=0;whiteSpace=wrap;html=1;fillColor=#f8cecc;strokeColor=#b85450;" vertex="1" parent="WIyWlLk6GJQsqaUBKTNV-1">
          <mxGeometry x="530" y="540" width="120" height="60" as="geometry" />
        </mxCell>
        <mxCell id="uIKVfRV7Bo58f426nTOa-66" style="edgeStyle=orthogonalEdgeStyle;rounded=0;orthogonalLoop=1;jettySize=auto;html=1;entryX=0;entryY=0.5;entryDx=0;entryDy=0;" edge="1" parent="WIyWlLk6GJQsqaUBKTNV-1" source="uIKVfRV7Bo58f426nTOa-60" target="uIKVfRV7Bo58f426nTOa-62">
          <mxGeometry relative="1" as="geometry">
            <Array as="points">
              <mxPoint x="120" y="540" />
              <mxPoint x="270" y="540" />
              <mxPoint x="270" y="600" />
            </Array>
          </mxGeometry>
        </mxCell>
        <mxCell id="uIKVfRV7Bo58f426nTOa-60" value="게시물 열람" style="rounded=0;whiteSpace=wrap;html=1;fillColor=#fff2cc;strokeColor=#d6b656;" vertex="1" parent="WIyWlLk6GJQsqaUBKTNV-1">
          <mxGeometry x="60" y="460" width="120" height="60" as="geometry" />
        </mxCell>
        <mxCell id="uIKVfRV7Bo58f426nTOa-61" value="매치 신청" style="rounded=0;whiteSpace=wrap;html=1;fillColor=#fff2cc;strokeColor=#d6b656;" vertex="1" parent="WIyWlLk6GJQsqaUBKTNV-1">
          <mxGeometry x="60" y="570" width="120" height="60" as="geometry" />
        </mxCell>
        <mxCell id="uIKVfRV7Bo58f426nTOa-64" style="edgeStyle=orthogonalEdgeStyle;rounded=0;orthogonalLoop=1;jettySize=auto;html=1;" edge="1" parent="WIyWlLk6GJQsqaUBKTNV-1" source="uIKVfRV7Bo58f426nTOa-62" target="uIKVfRV7Bo58f426nTOa-61">
          <mxGeometry relative="1" as="geometry">
            <Array as="points">
              <mxPoint x="120" y="600" />
            </Array>
          </mxGeometry>
        </mxCell>
        <mxCell id="uIKVfRV7Bo58f426nTOa-68" style="edgeStyle=orthogonalEdgeStyle;rounded=0;orthogonalLoop=1;jettySize=auto;html=1;" edge="1" parent="WIyWlLk6GJQsqaUBKTNV-1" source="uIKVfRV7Bo58f426nTOa-62" target="uIKVfRV7Bo58f426nTOa-67">
          <mxGeometry relative="1" as="geometry" />
        </mxCell>
        <mxCell id="uIKVfRV7Bo58f426nTOa-62" value="팀 장 이라면" style="rhombus;whiteSpace=wrap;html=1;rounded=0;fillColor=#fff2cc;strokeColor=#d6b656;" vertex="1" parent="WIyWlLk6GJQsqaUBKTNV-1">
          <mxGeometry x="202" y="560" width="136" height="80" as="geometry" />
        </mxCell>
        <mxCell id="uIKVfRV7Bo58f426nTOa-67" value="글 쓰기" style="rounded=0;whiteSpace=wrap;html=1;fillColor=#fff2cc;strokeColor=#d6b656;" vertex="1" parent="WIyWlLk6GJQsqaUBKTNV-1">
          <mxGeometry x="210" y="660" width="120" height="60" as="geometry" />
        </mxCell>
        <mxCell id="uIKVfRV7Bo58f426nTOa-72" style="edgeStyle=orthogonalEdgeStyle;rounded=0;orthogonalLoop=1;jettySize=auto;html=1;entryX=0;entryY=0.5;entryDx=0;entryDy=0;" edge="1" parent="WIyWlLk6GJQsqaUBKTNV-1" source="uIKVfRV7Bo58f426nTOa-69" target="uIKVfRV7Bo58f426nTOa-71">
          <mxGeometry relative="1" as="geometry" />
        </mxCell>
        <mxCell id="uIKVfRV7Bo58f426nTOa-74" style="edgeStyle=orthogonalEdgeStyle;rounded=0;orthogonalLoop=1;jettySize=auto;html=1;entryX=0;entryY=0.5;entryDx=0;entryDy=0;" edge="1" parent="WIyWlLk6GJQsqaUBKTNV-1" source="uIKVfRV7Bo58f426nTOa-69" target="uIKVfRV7Bo58f426nTOa-73">
          <mxGeometry relative="1" as="geometry">
            <Array as="points">
              <mxPoint x="440" y="720" />
            </Array>
          </mxGeometry>
        </mxCell>
        <mxCell id="uIKVfRV7Bo58f426nTOa-69" value="내 정보" style="rounded=0;whiteSpace=wrap;html=1;fillColor=#e1d5e7;strokeColor=#9673a6;" vertex="1" parent="WIyWlLk6GJQsqaUBKTNV-1">
          <mxGeometry x="380" y="614" width="120" height="60" as="geometry" />
        </mxCell>
        <mxCell id="uIKVfRV7Bo58f426nTOa-71" value="내 정보 수정" style="rounded=0;whiteSpace=wrap;html=1;fillColor=#e1d5e7;strokeColor=#9673a6;" vertex="1" parent="WIyWlLk6GJQsqaUBKTNV-1">
          <mxGeometry x="530" y="614" width="120" height="60" as="geometry" />
        </mxCell>
        <mxCell id="uIKVfRV7Bo58f426nTOa-77" style="edgeStyle=orthogonalEdgeStyle;rounded=0;orthogonalLoop=1;jettySize=auto;html=1;" edge="1" parent="WIyWlLk6GJQsqaUBKTNV-1" source="uIKVfRV7Bo58f426nTOa-73" target="uIKVfRV7Bo58f426nTOa-75">
          <mxGeometry relative="1" as="geometry">
            <Array as="points">
              <mxPoint x="590" y="780" />
            </Array>
          </mxGeometry>
        </mxCell>
        <mxCell id="uIKVfRV7Bo58f426nTOa-73" value="팀 정보" style="rounded=0;whiteSpace=wrap;html=1;fillColor=#e1d5e7;strokeColor=#9673a6;" vertex="1" parent="WIyWlLk6GJQsqaUBKTNV-1">
          <mxGeometry x="530" y="690" width="120" height="60" as="geometry" />
        </mxCell>
        <mxCell id="uIKVfRV7Bo58f426nTOa-79" style="edgeStyle=orthogonalEdgeStyle;rounded=0;orthogonalLoop=1;jettySize=auto;html=1;entryX=1;entryY=0.5;entryDx=0;entryDy=0;" edge="1" parent="WIyWlLk6GJQsqaUBKTNV-1" source="uIKVfRV7Bo58f426nTOa-75" target="uIKVfRV7Bo58f426nTOa-78">
          <mxGeometry relative="1" as="geometry" />
        </mxCell>
        <mxCell id="uIKVfRV7Bo58f426nTOa-75" value="팀 장 이라면" style="rhombus;whiteSpace=wrap;html=1;rounded=0;fillColor=#e1d5e7;strokeColor=#9673a6;" vertex="1" parent="WIyWlLk6GJQsqaUBKTNV-1">
          <mxGeometry x="372" y="740" width="136" height="80" as="geometry" />
        </mxCell>
        <mxCell id="uIKVfRV7Bo58f426nTOa-82" style="edgeStyle=orthogonalEdgeStyle;rounded=0;orthogonalLoop=1;jettySize=auto;html=1;entryX=1;entryY=0.5;entryDx=0;entryDy=0;" edge="1" parent="WIyWlLk6GJQsqaUBKTNV-1" source="uIKVfRV7Bo58f426nTOa-78" target="uIKVfRV7Bo58f426nTOa-81">
          <mxGeometry relative="1" as="geometry" />
        </mxCell>
        <mxCell id="uIKVfRV7Bo58f426nTOa-83" style="edgeStyle=orthogonalEdgeStyle;rounded=0;orthogonalLoop=1;jettySize=auto;html=1;entryX=1;entryY=0.5;entryDx=0;entryDy=0;" edge="1" parent="WIyWlLk6GJQsqaUBKTNV-1" source="uIKVfRV7Bo58f426nTOa-78" target="uIKVfRV7Bo58f426nTOa-80">
          <mxGeometry relative="1" as="geometry" />
        </mxCell>
        <mxCell id="uIKVfRV7Bo58f426nTOa-78" value="팀 정보 수정" style="rounded=0;whiteSpace=wrap;html=1;fillColor=#e1d5e7;strokeColor=#9673a6;" vertex="1" parent="WIyWlLk6GJQsqaUBKTNV-1">
          <mxGeometry x="210" y="750" width="120" height="60" as="geometry" />
        </mxCell>
        <mxCell id="uIKVfRV7Bo58f426nTOa-80" value="팀 삭제" style="rounded=0;whiteSpace=wrap;html=1;fillColor=#e1d5e7;strokeColor=#9673a6;" vertex="1" parent="WIyWlLk6GJQsqaUBKTNV-1">
          <mxGeometry x="40" y="660" width="120" height="60" as="geometry" />
        </mxCell>
        <mxCell id="uIKVfRV7Bo58f426nTOa-81" value="팀 장 위임" style="rounded=0;whiteSpace=wrap;html=1;fillColor=#e1d5e7;strokeColor=#9673a6;" vertex="1" parent="WIyWlLk6GJQsqaUBKTNV-1">
          <mxGeometry x="40" y="750" width="120" height="60" as="geometry" />
        </mxCell>
      </root>
    </mxGraphModel>
  </diagram>
</mxfile>
